#!OML:ASF F:\VICON\USERDATA\INSTALL\rory3\rory3.ASF
:FULLY-SPECIFIED
:DEGREES
378
root 2.8103 15.1098 5.90524 486.08 -17.7377 14.8738
lowerback -0.441448 2.81049 11.6735
upperback -14.0841 5.17427 1.33287
thorax -14.6779 1.18656 -5.54838
lowerneck -3.49716 -0.828381 36.3731
upperneck -12.2543 -2.22028 -6.02358
head -3.88042 -2.62211 -7.35289
rclavicle 3.02153e-014 -2.78299e-015
rhumerus 55.6632 -7.89846 -66.6451
rradius 43.8073
rwrist 16.2012
rhand -28.6659 -89.5555
rfingers 7.12502
rthumb 177.971 -60.4744
lclavicle 3.02153e-014 -2.78299e-015
lhumerus 84.2516 18.3038 -1.43153
lradius 28.0714
lwrist 7.47069
lhand -40.9011 -768.578
lfingers 7.12502
lthumb -13.8363 -19.0579
rfemur -117.746 -28.6441 -23.8953
rtibia 38.6635
rfoot -16.8982 -34.3245
rtoes -4.94395
lfemur -32.685 -1.03372 -36.3858
ltibia 43.2175
lfoot 6.43624 5.88547
ltoes -21.5645
379
root 2.7786 15.1886 6.18541 488.177 -19.0759 15.7751
lowerback -1.36383 2.8865 11.9402
upperback -14.658 5.19641 1.07742
thorax -14.7911 1.11698 -5.93284
lowerneck -3.41282 -0.712289 37.6818
upperneck -12.9673 -2.12755 -6.99569
head -4.13614 -2.68809 -7.8816
rclavicle 6.04305e-014 7.79236e-014
rhumerus 57.4313 -8.04952 -67.5048
rradius 41.7894
rwrist 19.4522
rhand -30.81 -88.1935
rfingers 7.12502
rthumb 175.9 -61.8662
lclavicle 6.04305e-014 7.79236e-014
lhumerus 84.0874 19.2306 -1.43219
lradius 28.3316
lwrist 10.5966
lhand -39.7721 -768.442
lfingers 7.12502
lthumb -12.7481 -18.8507
rfemur -113.252 -31.1705 -28.5815
rtibia 34.9847
rfoot -16.1913 -37.1904
rtoes -4.39992
lfemur -31.6891 -1.15576 -35.3632
ltibia 45.3612
lfoot 6.51213 6.17367
ltoes -21.2589
380
root 2.73915 15.2854 6.48867 490.139 -20.4491 16.6613
lowerback -1.84711 2.88192 12.5247
upperback -15.2814 5.17596 0.652578
thorax -15.2468 0.935066 -6.71524
lowerneck -2.78802 -0.773636 37.9706
upperneck -13.77 -1.90439 -6.91594
head -4.46375 -2.68425 -7.90748
rclavicle 1.90833e-013 1.27222e-013
rhumerus 58.3411 -8.08826 -68.1749
rradius 41.0387
rwrist 21.2545
rhand -32.4028 -89.4409
rfingers 7.12502
rthumb 174.362 -60.6541
lclavicle 1.90833e-013 1.27222e-013
lhumerus 83.9336 20.0523 -1.2462
lradius 28.5842
lwrist 12.6639
lhand -41.0021 -766.243
lfingers 7.12502
lthumb -13.9336 -16.7294
rfemur -106.572 -33.3526 -35.8696
rtibia 30.7809
rfoot -16.02 -41.9363
rtoes -2.36281
lfemur -30.825 -1.21218 -34.3126
ltibia 47.5481
lfoot 6.67793 5.96258
ltoes -24.4146
381
root 2.6923 15.3779 6.76861 492.042 -21.9603 17.3752
lowerback -2.74642 2.82456 12.4507
upperback -15.9004 4.962 0.230704
thorax -15.4954 0.75716 -7.09534
lowerneck -1.2824 -0.90792 40.3747
upperneck -14.9213 -1.47717 -8.08249
head -5.04642 -2.66112 -8.67432
rclavicle -3.81667e-014 1.66979e-014
rhumerus 58.7647 -8.00498 -68.7057
rradius 40.6662
rwrist 22.3598
rhand -31.0767 -268.092
rfingers 7.12502
rthumb 175.643 -58.1573
lclavicle -3.81667e-014 1.66979e-014
lhumerus 84.5915 20.2673 0.352378
lradius 28.178
lwrist 12.8162
lhand -43.8883 -760.364
lfingers 7.12502
lthumb -16.7136 -11.0637
rfemur -100.384 -35.1103 -41.5813
rtibia 26.0979
rfoot -15.4304 -45.6165
rtoes 1.07722
lfemur -29.9655 -1.27381 -33.2696
ltibia 49.6952
lfoot 7.72847 5.30468
ltoes -23.2188
382
root 2.64615 15.4817 7.05967 493.996 -23.7767 17.8248
lowerback -3.20052 2.86677 12.5515
upperback -16.4834 4.96561 -0.262721
thorax -15.9383 0.63751 -7.70827
lowerneck -0.362697 -1.09947 40.4643
upperneck -15.648 -1.25895 -8.00542
head -5.39444 -2.6382 -8.68297
rclavicle -2.06736e-013 -3.89618e-014
rhumerus 59.5929 -7.9548 -68.6476
rradius 40.033
rwrist 23.4565
rhand -30.6263 -265.575
rfingers 7.12502
rthumb 176.078 -55.6309
lclavicle -2.06736e-013 -3.89618e-014
lhumerus 85.0581 20.5559 1.88308
lradius 27.7294
lwrist 13.022
lhand -36.2527 -767.566
lfingers 7.12502
lthumb -9.35361 -17.7932
rfemur -92.1841 -36.3688 -49.5202
rtibia 20.487
rfoot -17.5388 -50.3497
rtoes 7.45186
lfemur -29.2019 -1.40742 -32.546
ltibia 51.9147
lfoot 8.2296 4.42388
ltoes -26.6674
383
root 2.59783 15.5848 7.34678 495.839 -25.2632 18.2874
lowerback -3.78644 2.9853 12.7553
upperback -16.9537 5.07027 -0.595018
thorax -16.1413 0.590006 -8.18839
lowerneck 0.370389 -1.22314 40.9472
upperneck -16.0658 -1.05603 -8.0955
head -5.62121 -2.60259 -8.79621
rclavicle -1.52667e-013 -1.08934e-013
rhumerus 60.6742 -7.89687 -68.2187
rradius 39.3023
rwrist 24.3811
rhand -30.71 -262.877
rfingers 7.12502
rthumb 175.997 -52.9345
lclavicle -1.52667e-013 -1.08934e-013
lhumerus 85.0558 20.7422 2.87902
lradius 27.5647
lwrist 12.9368
lhand -40.0123 -762.797
lfingers 7.12502
lthumb -12.9796 -13.2209
rfemur -83.6281 -37.1052 -55.9509
rtibia 13.004
rfoot -16.9824 -54.2522
rtoes 10.4005
lfemur -28.5976 -1.21339 -31.4675
ltibia 54.4157
lfoot 8.49834 3.11668
ltoes -29.291
384
root 2.54461 15.6882 7.63465 497.402 -26.5632 18.819
lowerback -4.10811 3.11411 13.1654
upperback -17.34 5.24603 -0.845412
thorax -16.3946 0.550902 -8.71079
lowerneck 1.4002 -1.43023 41.4675
upperneck -16.7499 -0.824614 -8.40391
head -5.9761 -2.57105 -9.01074
rclavicle 7.63333e-014 -5.56597e-015
rhumerus 60.27 -8.05108 -65.8159
rradius 39.8757
rwrist 23.2248
rhand -30.469 -259.63
rfingers 7.12502
rthumb 176.23 -49.684
lclavicle 7.63333e-014 -5.56597e-015
lhumerus 83.571 21.5853 1.53256
lradius 28.01
lwrist 14.1851
lhand -34.0699 -767.728
lfingers 7.12502
lthumb -7.24701 -17.8716
rfemur -75.5418 -38.4978 -56.1886
rtibia -1.74931e-014
rfoot -11.1699 -54.0799
rtoes 12.8336
lfemur -27.9733 -0.904975 -30.0036
ltibia 57.2309
lfoot 8.93406 3.22165
ltoes -30.6496
385
root 2.48675 15.797 7.93472 498.786 -28.1646 19.1554
lowerback -3.93643 3.1514 13.4756
upperback -17.7187 5.35205 -1.23433
thorax -16.9707 0.441137 -9.38389
lowerneck 2.78795 -1.73913 41.5073
upperneck -17.6219 -0.536512 -8.55404
head -6.43304 -2.50818 -9.12211
rclavicle -5.725e-014 -2.3059e-014
rhumerus 60.7306 -7.95972 -63.9302
rradius 39.4851
rwrist 22.5695
rhand -30.6872 -256.623
rfingers 7.12502
rthumb 176.019 -46.6802
lclavicle -5.725e-014 -2.3059e-014
lhumerus 83.6016 21.5258 2.42654
lradius 27.2095
lwrist 12.3064
lhand -35.0729 -767.198
lfingers 7.12502
lthumb -8.21508 -17.3778
rfemur -74.2962 -39.7045 -56.8876
rtibia -3.33958e-014
rfoot -13.9305 -53.6091
rtoes 19.1429
lfemur -27.2496 -0.716544 -28.7336
ltibia 60.1926
lfoot 8.60972 4.38757
ltoes -24.8742
